<svg width="51" height="50" viewBox="0 0 51 50" fill="none" xmlns="http://www.w3.org/2000/svg">
<path d="M49.881 15.8571V6.69591C49.8811 5.08251 49.2414 3.53493 48.1023 2.39238C46.9631 1.24982 45.4175 0.605511 43.8041 0.600671L34.643 0.573242M49.881 34.1428V43.2856C49.881 44.9022 49.2389 46.4525 48.0958 47.5956C46.9527 48.7387 45.4024 49.3809 43.7858 49.3809H34.643M16.3572 0.573242L7.19609 0.603718C5.58271 0.608559 4.03705 1.25287 2.89792 2.39543C1.7588 3.53798 1.11913 5.08556 1.11914 6.69896V15.8571M16.3572 49.3809H7.21438C5.59782 49.3809 4.04747 48.7387 2.90439 47.5956C1.76132 46.4525 1.11914 44.9022 1.11914 43.2856V34.1428" stroke="#050505" stroke-opacity="0.3" stroke-linecap="round" stroke-linejoin="round"/>
</svg>
