<svg aria-hidden="true" style="position:absolute;width:0;height:0;overflow:hidden" xmlns="http://www.w3.org/2000/svg"><defs><symbol id="arrowLeft" viewBox="0 0 32 32"><path stroke-linejoin="round" stroke-linecap="round" stroke-width="2.667" d="m25.427 16.001-18.856-.002M15.998 25.428l-9.427-9.429L16 6.572"/></symbol><symbol id="arrowUpRight" viewBox="0 0 32 32" fill="none"><path stroke="currentColor" stroke-linejoin="round" stroke-linecap="round" stroke-width="2.667" d="M9.333 22.667 22.666 9.334M9.333 9.333h13.333v13.333"/></symbol><symbol id="close" viewBox="0 0 32 32"><path stroke-linejoin="round" stroke-linecap="round" stroke-width="2.667" d="M24 8 8 24M8 8l16 16"/></symbol><symbol id="dropDown" viewBox="0 0 32 32"><path stroke-linejoin="round" stroke-linecap="round" stroke-width="3.2" d="m8 12 8 8 8-8"/></symbol><symbol id="facebook" viewBox="0 0 32 32"><path d="M19.52 4.64h.96v3.6h-1.2c-.48 0-.96 0-1.2.24s-.24.48-.24 1.04v1.28h2.64v3.04h-2.64v13.2h-4.08V13.76H11.6v-3.04h2.16V9.68c0-1.76.24-3.04.72-3.6.72-1.04 2.16-1.52 4.32-1.52.24.08.48.08.72.08z"/></symbol><symbol id="heart" viewBox="0 0 32 32"><path stroke-linejoin="round" stroke-linecap="round" stroke-width="2.667" d="M27.786 6.146a7.345 7.345 0 0 0-5.187-2.15 7.33 7.33 0 0 0-5.187 2.15l-1.413 1.413-1.413-1.413a7.333 7.333 0 0 0-10.374 0 7.333 7.333 0 0 0 0 10.374l11.787 11.787L27.786 16.52a7.345 7.345 0 0 0 2.15-5.187 7.33 7.33 0 0 0-2.15-5.187z"/></symbol><symbol id="instagram" viewBox="0 0 32 32"><path d="M28.718 10.756a9.264 9.264 0 0 0-.596-3.145 6.547 6.547 0 0 0-3.743-3.737 9.42 9.42 0 0 0-3.108-.596c-1.368-.061-1.801-.078-5.273-.078s-3.916 0-5.274.078a9.418 9.418 0 0 0-3.106.596 6.541 6.541 0 0 0-3.743 3.737 9.288 9.288 0 0 0-.596 3.101c-.061 1.367-.08 1.8-.08 5.265s0 3.909.08 5.265a9.335 9.335 0 0 0 .596 3.104 6.55 6.55 0 0 0 3.744 3.736c.989.386 2.04.604 3.106.639 1.369.061 1.803.08 5.274.08s3.916 0 5.274-.08a9.362 9.362 0 0 0 3.108-.595 6.555 6.555 0 0 0 3.743-3.737 9.35 9.35 0 0 0 .596-3.104c.061-1.365.08-1.798.08-5.265-.003-3.466-.003-3.906-.082-5.264zM15.99 22.531c-3.631 0-6.572-2.936-6.572-6.561s2.941-6.561 6.572-6.561c3.628 0 6.572 2.936 6.572 6.561s-2.944 6.561-6.572 6.561zm6.834-11.835a1.53 1.53 0 1 1 0-3.06 1.53 1.53 0 1 1 0 3.06z"/><path d="M15.992 19.976a4.004 4.004 0 1 0 0-8.009 4.004 4.004 0 0 0 0 8.009z"/></symbol><symbol id="quote" viewBox="0 0 39 32"><path d="M0 32V21.294c0-4 .704-7.686 2.113-11.059S5.909 3.451 9.275 0l6.105 4.824c-1.957 1.961-3.444 3.804-4.462 5.529s-1.683 3.49-1.996 5.294h7.514V32H-.002zm22.896 0V21.294c0-4 .704-7.686 2.113-11.059S28.805 3.451 32.171 0l6.105 4.824c-1.957 1.961-3.444 3.804-4.462 5.529s-1.683 3.49-1.996 5.294h7.514V32H22.894z"/></symbol><symbol id="showPassword" viewBox="0 0 32 32"><path stroke-linejoin="round" stroke-linecap="round" stroke-width="2.88" d="M23.92 23.92A13.43 13.43 0 0 1 16 26.667C6.667 26.667 1.333 16 1.333 16A24.605 24.605 0 0 1 8.08 8.08m5.12-2.426a12.161 12.161 0 0 1 2.8-.32c9.333 0 14.667 10.667 14.667 10.667a24.646 24.646 0 0 1-2.88 4.253m-8.961-1.427a4.01 4.01 0 0 1-2.855 1.273 3.996 3.996 0 0 1-3.779-2.501 3.995 3.995 0 0 1 .983-4.424M1.333 1.334l29.333 29.333"/></symbol><symbol id="trash" viewBox="0 0 32 32"><path stroke-linejoin="round" stroke-linecap="round" stroke-width="3.2" d="M12 4h8M4 8h24m-2.667 0-.935 14.026c-.14 2.104-.21 3.156-.665 3.954a4.007 4.007 0 0 1-1.731 1.62c-.826.4-1.881.4-3.99.4h-4.025c-2.109 0-3.163 0-3.99-.4a3.996 3.996 0 0 1-1.731-1.62c-.455-.798-.525-1.85-.665-3.954L6.666 8"/></symbol><symbol id="youtube" viewBox="0 0 32 32"><path d="M30.112 9.356s-.288-2.08-1.152-2.971c-1.056-1.189-2.304-1.189-2.88-1.288C22.048 4.8 16 4.8 16 4.8s-6.048 0-10.08.297c-.576.099-1.824.099-2.88 1.288-.864.891-1.152 2.971-1.152 2.971S1.6 11.733 1.6 14.11v2.179c0 2.377.288 4.853.288 4.853s.288 2.08 1.152 2.971c1.056 1.189 2.496 1.189 3.168 1.288 2.304.099 9.792.198 9.792.198s6.048 0 10.08-.297c.576-.099 1.824-.099 2.88-1.288.864-.891 1.152-2.971 1.152-2.971s.288-2.377.288-4.754V14.11c0-2.377-.288-4.754-.288-4.754zm-17.088 9.707v-8.32l7.776 4.16-7.776 4.16z"/></symbol><symbol id="burger" viewBox="0 0 28 28"><path d="M24.5 11.666h-21M24.5 7h-21M24.5 16.334h-21M24.5 21h-21" stroke="currentColor" stroke-width="2" stroke-linecap="round" stroke-linejoin="round"/></symbol><symbol id="chevronDown" viewBox="0 0 12 6"><path d="M1.5.75 6 5.25l4.5-4.5" stroke="currentColor" stroke-width="1.5" stroke-linecap="round" stroke-linejoin="round"/></symbol><symbol id="chevronUp" viewBox="0 0 12 6"><path d="m1.5 5.25 4.5-4 4.5 4" stroke="currentColor" stroke-width="1.5" stroke-linecap="round" stroke-linejoin="round"/></symbol><symbol id="plus" viewBox="0 0 18 18"><path d="M9 3.75v10.5M3.75 9h10.5" stroke="currentColor" stroke-width="1.5" stroke-linecap="round" stroke-linejoin="round"/></symbol></defs></svg>